<?xml version="1.0" standalone="no"?>
<!DOCTYPE svg PUBLIC "-//W3C//DTD SVG 20010904//EN" "http://www.w3.org/TR/2001/REC-SVG-20010904/DTD/svg10.dtd">
<svg version="1.0" xmlns="http://www.w3.org/2000/svg" width="285.000000pt" height="256.000000pt" viewBox="0 0 285.000000 256.000000" preserveAspectRatio="xMidYMid meet" fill="#152F4A">

    <g transform="translate(0.000000,256.000000) scale(0.100000,-0.100000)" fill="#152F4A" stroke="none">
        <path d="M900 2452 l-115 -67 0 -330 0 -329 115 -67 115 -67 3 324 c1 178 5
324 9 324 4 0 192 -107 420 -237 l412 -238 1 -486 0 -486 -417 -241 -418 -241
-3 432 -2 432 -58 33 c-31 17 -85 48 -119 67 l-63 36 0 -568 0 -569 116 -68
c65 -37 123 -66 130 -64 7 2 252 140 543 308 l530 305 -2 623 -2 623 -535 309
c-294 171 -537 310 -540 309 -3 0 -57 -30 -120 -67z" />
        <path d="M2340 1796 l-175 -101 -3 -139 -3 -138 54 31 c30 17 57 31 61 31 3 0
7 -215 8 -479 l3 -479 108 62 c59 34 112 67 117 72 7 7 9 229 8 626 l-3 615
-175 -101z" />
        <path d="M362 1273 l3 -617 115 -67 115 -67 3 480 c2 397 5 479 16 475 7 -3
196 -111 420 -240 l407 -235 177 103 177 103 3 136 c1 75 1 136 -1 136 -2 0
-82 -45 -177 -100 -95 -55 -176 -100 -180 -100 -4 0 -244 137 -535 305 -290
168 -532 305 -537 305 -4 0 -7 -278 -6 -617z" />
    </g>
</svg>
